<svg width="16" height="18" viewBox="0 0 16 18" fill="none" xmlns="http://www.w3.org/2000/svg">
<path d="M5.65941 15.5555C5.53674 16.5373 4.64119 16.8888 3.65941 16.8888C2.67763 16.8888 1.98119 16.0928 2.10385 15.111L2.5483 11.111C2.67097 10.1293 3.56652 9.33325 4.5483 9.33325C5.53008 9.33325 7.42297 9.33325 6.10385 11.111C4.78474 12.8888 5.65941 15.5555 5.65941 15.5555Z" fill="#BE1931"/>
<path d="M15.8444 8.44447C15.8444 11.512 15.1582 14 14.3111 14C13.4644 14 5.22217 11.512 5.22217 8.44447C5.22217 5.37647 13.4644 2.88892 14.3111 2.88892C15.1582 2.88892 15.8444 5.37647 15.8444 8.44447Z" fill="#CCD6DD"/>
<path d="M14.3112 14C15.158 14 15.8445 11.5127 15.8445 8.44447C15.8445 5.37622 15.158 2.88892 14.3112 2.88892C13.4643 2.88892 12.7778 5.37622 12.7778 8.44447C12.7778 11.5127 13.4643 14 14.3112 14Z" fill="#66757F"/>
<path d="M7.88889 11.5555L1.66667 11.111C-0.555556 11.111 -0.555556 5.7777 1.66667 5.7777L7.88889 5.33325C6.55556 6.66659 6.55556 10.2221 7.88889 11.5555Z" fill="#DD2E44"/>
<path d="M13.8444 10.3769C14.2126 10.3769 14.5111 9.51167 14.5111 8.44441C14.5111 7.37715 14.2126 6.51196 13.8444 6.51196C13.4762 6.51196 13.1777 7.37715 13.1777 8.44441C13.1777 9.51167 13.4762 10.3769 13.8444 10.3769Z" fill="#99AAB5"/>
</svg>
