<svg width="16" height="16" viewBox="0 0 16 16" fill="none" xmlns="http://www.w3.org/2000/svg">
<path d="M4.55262 6.44497C4.34661 6.78831 4.26663 7.23536 4.26663 7.53337V7.57338C4.39587 7.54715 4.52964 7.53337 4.66663 7.53337C5.7712 7.53337 6.66663 8.4288 6.66663 9.53337C6.66663 10.6379 5.7712 11.5334 4.66663 11.5334C3.56206 11.5334 2.66663 10.6379 2.66663 9.53337V7.53337C2.66663 7.03139 2.78664 6.27843 3.18063 5.62178C3.59969 4.92334 4.33933 4.33337 5.46663 4.33337C5.90845 4.33337 6.26663 4.69155 6.26663 5.13337C6.26663 5.5752 5.90845 5.93337 5.46663 5.93337C4.99392 5.93337 4.73356 6.14341 4.55262 6.44497Z" fill="black"/>
<path d="M11.2194 6.44497C11.0134 6.78831 10.9334 7.23536 10.9334 7.53337V7.57338C11.0626 7.54715 11.1964 7.53337 11.3334 7.53337C12.4379 7.53337 13.3334 8.4288 13.3334 9.53337C13.3334 10.6379 12.4379 11.5334 11.3334 11.5334C10.2288 11.5334 9.33337 10.6379 9.33337 9.53337V7.53337C9.33337 7.03139 9.45339 6.27843 9.84738 5.62178C10.2664 4.92334 11.0061 4.33337 12.1334 4.33337C12.5752 4.33337 12.9334 4.69155 12.9334 5.13337C12.9334 5.5752 12.5752 5.93337 12.1334 5.93337C11.6607 5.93337 11.4003 6.14341 11.2194 6.44497Z" fill="black"/>
</svg>
