<svg width="16" height="16" viewBox="0 0 16 16" fill="none" xmlns="http://www.w3.org/2000/svg">
<path d="M9.13963 7.74157H13.2853C13.4749 7.74157 13.6567 7.81686 13.7907 7.95089C13.9247 8.08491 14 8.26668 14 8.45622C14 8.64576 13.9247 8.82753 13.7907 8.96155C13.6567 9.09558 13.4749 9.17087 13.2853 9.17087H11.473C11.9375 9.70137 12.1913 10.3839 12.1862 11.089C12.1862 13.1829 9.84213 14.6015 7.16005 14.2906C5.49634 14.097 4.32646 13.4187 3.71043 12.266C3.52463 11.918 3.5625 11.5399 3.88767 11.3148C4.21283 11.089 4.78527 11.2441 4.97108 11.5921C5.35199 12.3053 6.11737 12.7298 7.32513 12.8706C9.17322 13.085 10.7569 12.2203 10.7569 11.0897C10.7569 10.3043 10.366 9.70328 9.25111 9.17087L2.71465 9.21742C2.52511 9.21742 2.34334 9.14213 2.20932 9.0081C2.07529 8.87408 2 8.69231 2 8.50277C2 8.31323 2.07529 8.13146 2.20932 7.99744C2.34334 7.86341 2.52511 7.78812 2.71465 7.78812L9.13963 7.74157ZM4.23642 6.45163C4.15848 6.33434 4.08737 6.21264 4.02345 6.08716C3.80906 5.66551 3.689 5.21957 3.71258 4.77577C3.82692 2.65684 5.80936 1.40763 8.4307 1.71207C10.0458 1.90002 11.2822 2.48675 12.1091 3.48941C12.1678 3.56217 12.2116 3.64583 12.238 3.73559C12.2643 3.82534 12.2726 3.91942 12.2624 4.0124C12.2523 4.10538 12.2238 4.19543 12.1788 4.27738C12.1337 4.35933 12.0728 4.43156 11.9997 4.48991C11.6953 4.74076 11.25 4.72289 10.9992 4.41845C10.4182 3.71452 9.52125 3.27787 8.26561 3.13208C6.43611 2.91911 5.14188 3.6452 5.14188 4.79221C5.14188 5.30247 5.31268 5.66408 5.68644 6.08573C5.84724 6.26725 6.14882 6.46092 6.59047 6.66817H4.38292C4.33374 6.59622 4.2849 6.52404 4.23642 6.45163Z" fill="black"/>
</svg>
