<svg width="16" height="16" viewBox="0 0 16 16" fill="none" xmlns="http://www.w3.org/2000/svg">
<path d="M5.3335 4H14.0002" stroke="black" stroke-width="1.6" stroke-linecap="round" stroke-linejoin="round"/>
<path d="M5.3335 8H14.0002" stroke="black" stroke-width="1.6" stroke-linecap="round" stroke-linejoin="round"/>
<path fill-rule="evenodd" clip-rule="evenodd" d="M2.00342 7.59968V7.67376H2.47745V7.59968C2.47745 7.48058 2.58221 7.37891 2.7603 7.37891C2.8393 7.37891 2.89906 7.40189 2.93769 7.43432C2.97554 7.46608 2.99659 7.50946 2.99659 7.56089C2.99659 7.60765 2.9871 7.64602 2.95058 7.69883C2.9111 7.75592 2.84123 7.82794 2.7185 7.93775L2.02152 8.56504V8.93333H3.51459V8.48257H2.74684L3.0214 8.24232C3.18668 8.09641 3.30296 7.98381 3.37719 7.877C3.45426 7.76613 3.48614 7.66154 3.48614 7.53502C3.48614 7.18156 3.17798 6.93333 2.7603 6.93333C2.54631 6.93333 2.35756 6.99871 2.22111 7.11655C2.0839 7.23505 2.00342 7.40359 2.00342 7.59968ZM2.07756 7.59968C2.07757 7.25052 2.36207 7.00741 2.76037 7.00741C2.39089 7.00741 2.11926 7.21661 2.0819 7.52561C2.07898 7.54971 2.07756 7.57442 2.07756 7.59968Z" fill="black"/>
<path d="M5.3335 12H14.0002" stroke="black" stroke-width="1.6" stroke-linecap="round" stroke-linejoin="round"/>
<path fill-rule="evenodd" clip-rule="evenodd" d="M2.46459 11.7024V12.1137H2.75624C2.86672 12.1137 2.94459 12.1362 2.99271 12.1699C3.03722 12.201 3.06147 12.2448 3.06164 12.3071C3.06064 12.3556 3.0381 12.3969 2.99357 12.4285C2.94723 12.4614 2.87549 12.4841 2.78153 12.4841C2.6828 12.4841 2.60671 12.4622 2.55626 12.4298C2.5072 12.3983 2.48242 12.3574 2.47838 12.3114L2.47245 12.2438H2L2.00427 12.3219C2.01431 12.5055 2.09827 12.6606 2.23745 12.7685C2.37554 12.8756 2.56399 12.9333 2.78153 12.9333C2.99985 12.9333 3.19194 12.8765 3.33136 12.7706C3.4723 12.6635 3.55638 12.5081 3.55638 12.3229C3.55638 12.1813 3.50254 12.0618 3.40677 11.9752C3.36462 11.937 3.31531 11.9061 3.26045 11.8823C3.39704 11.7985 3.4906 11.6618 3.4906 11.478C3.4906 11.3119 3.4161 11.1725 3.28701 11.0769C3.15983 10.9827 2.98356 10.9333 2.779 10.9333C2.57732 10.9333 2.39988 10.9889 2.26872 11.0942C2.13657 11.2002 2.05615 11.3532 2.04478 11.5366L2.0399 11.6153H2.5032L2.50877 11.5473C2.51323 11.4928 2.5385 11.4512 2.58115 11.4213C2.62555 11.3902 2.69232 11.3699 2.779 11.3699C2.87078 11.3699 2.92947 11.3901 2.96365 11.4168C2.99515 11.4414 3.01357 11.4773 3.01357 11.5311C3.01357 11.5777 2.9929 11.6176 2.95138 11.6482C2.90834 11.6799 2.84083 11.7024 2.75118 11.7024H2.46459ZM2.78153 12.5582C2.56397 12.5582 2.41724 12.4621 2.40459 12.3179H2.07824C2.07824 12.3179 2.07824 12.3179 2.07824 12.3179H2.40459C2.41724 12.4621 2.56397 12.5582 2.78153 12.5582ZM3.48219 12.3229C3.48219 12.0805 3.30068 11.9263 3.02826 11.9006C3.07868 11.9053 3.12615 11.9145 3.16977 11.9278C3.36179 11.9864 3.48219 12.1254 3.48219 12.3229ZM3.11637 11.8689C3.29275 11.8074 3.41642 11.6717 3.41642 11.478C3.41642 11.6534 3.31513 11.7812 3.16502 11.8495C3.14938 11.8566 3.13313 11.8631 3.11637 11.8689Z" fill="black"/>
<path fill-rule="evenodd" clip-rule="evenodd" d="M2.64779 3.49448V4.93333H3.14779V2.93333H2.69708L2.13721 3.30074V3.81964L2.64779 3.49448Z" fill="black"/>
</svg>
