<svg width="16" height="16" viewBox="0 0 16 16" fill="none" xmlns="http://www.w3.org/2000/svg">
<path d="M1 2.66663V7.99996M1 13.3333V7.99996M9.33333 2.66663V7.99996M9.33333 13.3333V7.99996M1 7.99996H9.33333" stroke="black" stroke-width="1.5" stroke-linecap="round"/>
<path d="M12.8123 11.5213H13.4702C14.1893 11.5213 14.6177 11.812 14.6177 12.3323C14.6101 12.7836 14.1817 13.0896 13.5467 13.0896C12.8888 13.0896 12.4451 12.7989 12.4068 12.3629H11.4199C11.4735 13.3421 12.3074 14 13.5467 14C14.7937 14 15.6658 13.3498 15.6658 12.3782C15.6658 11.6437 15.115 11.1771 14.2888 11.1006V11.0776C14.962 10.9476 15.4669 10.5038 15.4669 9.82298C15.4669 8.96614 14.7095 8.40002 13.539 8.40002C12.3992 8.40002 11.6035 9.02735 11.5423 10.0142H12.4986C12.5369 9.54757 12.95 9.27216 13.539 9.27216C14.1511 9.27216 14.4724 9.53992 14.4724 9.98363C14.4724 10.4197 14.0669 10.7257 13.4549 10.7257H12.8123V11.5213Z" fill="black"/>
</svg>
