<svg width="16" height="16" viewBox="0 0 16 16" fill="none" xmlns="http://www.w3.org/2000/svg">
<path d="M1 2.66663V7.99996M1 13.3333V7.99996M9.33333 2.66663V7.99996M9.33333 13.3333V7.99996M1 7.99996H9.33333" stroke="black" stroke-width="1.6" stroke-linecap="round"/>
<path d="M11.5464 10.1911H12.5319C12.5319 9.66706 12.9933 9.29947 13.6112 9.29947C14.1743 9.29947 14.5497 9.62796 14.5497 10.0738C14.5497 10.4492 14.3777 10.7151 13.6347 11.3799L11.6011 13.2101V14H15.6682V13.0849H13.0011V13.0615L14.2525 11.9665C15.2536 11.0827 15.5821 10.6682 15.5821 9.99556C15.5821 9.08829 14.7922 8.40002 13.6112 8.40002C12.4067 8.40002 11.5464 9.13522 11.5464 10.1911Z" fill="black"/>
</svg>
