<svg width="80" height="80" viewBox="0 0 80 80" fill="none" xmlns="http://www.w3.org/2000/svg">
<path d="M76 43.3224C76 48.4752 72.2073 47.9877 67.5294 47.9877H12.4706C7.79271 47.9877 4 48.4752 4 43.3224L8.23529 15.3306C8.5 10.8589 12.028 6 16.7059 6H63.2941C67.972 6 71.3221 11.1505 71.7647 15.3306L76 43.3224Z" fill="#67757F"/>
<path d="M76 67.5294C76 72.2072 72.2073 75.9999 67.5294 75.9999H12.4706C7.79271 75.9999 4 72.2072 4 67.5294V44.2352C4 39.5574 7.79271 35.7646 12.4706 35.7646H67.5294C72.2073 35.7646 76 39.5574 76 44.2352V67.5294Z" fill="#9AAAB4"/>
<path d="M54.8236 61.1764C54.8236 63.5143 52.9262 65.4117 50.5883 65.4117H29.4118C27.0739 65.4117 25.1765 63.5143 25.1765 61.1764V50.5882C25.1765 48.2503 27.0739 46.3529 29.4118 46.3529H50.5883C52.9262 46.3529 54.8236 48.2503 54.8236 50.5882V61.1764Z" fill="#67757F"/>
<path d="M50.5882 59.0588C50.5882 60.2299 49.6416 61.1765 48.4706 61.1765H31.5294C30.3604 61.1765 29.4117 60.2299 29.4117 59.0588V52.7059C29.4117 51.5348 30.3604 50.5883 31.5294 50.5883H48.4706C49.6416 50.5883 50.5882 51.5348 50.5882 52.7059V59.0588Z" fill="#E1E8ED"/>
</svg>
