<svg width="32" height="32" fill="none" xmlns="http://www.w3.org/2000/svg"><path fill="#757984" d="M0 0h32v32H0z"/><g clip-path="url(#prefix__clip0_885_2695)"><path d="M26 16c0 5.523-4.477 10-10 10-5.522 0-10-4.477-10-10 0-5.522 4.478-10 10-10 5.523 0 10 4.478 10 10z" fill="#FFCC4D"/><path d="M12.389 17.389c.767 0 1.389-.87 1.389-1.945 0-1.073-.622-1.944-1.39-1.944-.766 0-1.388.87-1.388 1.944 0 1.074.622 1.945 1.389 1.945zM19.611 17.389c.768 0 1.39-.87 1.39-1.945 0-1.073-.622-1.944-1.39-1.944-.767 0-1.388.87-1.388 1.944 0 1.074.622 1.945 1.389 1.945zM9.332 13.5a.556.556 0 01-.444-.889c1.813-2.417 4.232-2.444 4.334-2.444a.556.556 0 01.002 1.11c-.086.002-1.982.049-3.447 2a.554.554 0 01-.445.223zm13.335 0a.554.554 0 01-.445-.222c-1.468-1.956-3.367-2-3.448-2a.557.557 0 01.003-1.111c.102 0 2.52.027 4.334 2.444a.555.555 0 01-.444.889zm-3.62 8.266c-.006-.024-.636-2.433-3.048-2.433-2.41 0-3.04 2.409-3.047 2.433-.03.118.025.24.13.302.104.063.24.048.33-.033.005-.005.563-.48 2.587-.48 1.995 0 2.565.462 2.587.48a.278.278 0 00.46-.269z" fill="#664500"/><path d="M14.889 23.222a2.777 2.777 0 11-5.556 0c0-1.534 2.222-5.555 2.778-5.555.555 0 2.778 4.02 2.778 5.555z" fill="#5DADEC"/></g><defs><clipPath id="prefix__clip0_885_2695"><path fill="#fff" transform="translate(6 6)" d="M0 0h20v20H0z"/></clipPath></defs></svg>
