<svg width="32" height="32" fill="none" xmlns="http://www.w3.org/2000/svg"><path fill="#FFCC4D" d="M0 0h32v32H0z"/><g clip-path="url(#prefix__clip0_885_2668)"><path d="M12.46 10.16a.788.788 0 00-.15.22l-.004-.005-6.231 14.037.006.006c-.116.224.078.68.474 1.076.396.396.852.59 1.075.474l.006.005 14.037-6.231-.005-.005a.769.769 0 00.22-.15c.867-.867-.54-3.681-3.143-6.285-2.603-2.603-5.417-4.01-6.286-3.142z" fill="#DD2E44"/><path d="M13.223 12.667L6.232 24.059l-.157.353.006.006c-.116.224.078.68.474 1.076.129.129.263.227.394.31l8.496-10.36-2.222-2.777z" fill="#EA596E"/><path d="M18.784 13.259c2.595 2.595 4.035 5.362 3.216 6.18-.818.819-3.585-.621-6.18-3.216-2.596-2.595-4.036-5.363-3.218-6.181.82-.819 3.586.621 6.182 3.217z" fill="#A0041E"/><path d="M16.327 13.56a.55.55 0 01-.407.12c-.483-.052-.888-.22-1.172-.485-.3-.28-.449-.657-.408-1.034.07-.663.735-1.27 1.868-1.148.44.047.637-.095.644-.162.008-.068-.154-.248-.595-.296-.482-.052-.887-.22-1.172-.485-.3-.28-.45-.657-.408-1.034.072-.663.736-1.27 1.868-1.148.32.035.49-.031.562-.074.057-.035.08-.068.082-.088.007-.067-.153-.248-.594-.295a.555.555 0 11.119-1.105c1.132.122 1.652.857 1.58 1.52-.072.663-.736 1.27-1.869 1.148-.321-.035-.489.032-.561.074-.057.035-.08.069-.083.088-.007.067.154.247.595.295 1.132.122 1.652.857 1.58 1.52-.071.662-.735 1.27-1.867 1.147-.322-.035-.49.032-.563.074-.057.036-.08.07-.082.088-.007.067.153.248.594.296a.556.556 0 01.29.984z" fill="#AA8DD8"/><path d="M23.034 18.698c1.096-.31 1.852.18 2.032.822.18.64-.21 1.452-1.306 1.76-.427.12-.556.325-.539.39.02.066.237.173.663.053 1.096-.308 1.852.18 2.032.822.181.641-.21 1.452-1.306 1.76-.427.12-.556.326-.537.39.018.066.235.173.662.053a.556.556 0 01.3 1.07c-1.095.308-1.852-.18-2.033-.822-.18-.641.21-1.451 1.307-1.76.428-.121.556-.325.537-.39-.017-.065-.234-.174-.66-.054-1.097.31-1.853-.179-2.033-.821-.18-.642.21-1.452 1.306-1.762.426-.119.555-.325.537-.389-.019-.066-.235-.173-.662-.053a.555.555 0 11-.3-1.069z" fill="#77B255"/><path d="M18.779 17.2a.556.556 0 01-.348-.99c.121-.097 3.01-2.366 7.093-1.782a.555.555 0 11-.158 1.1c-3.607-.513-6.215 1.53-6.24 1.55a.555.555 0 01-.347.122z" fill="#AA8DD8"/><path d="M9.197 14.889a.555.555 0 01-.532-.715c.63-2.096 1.2-5.441.499-6.313-.079-.1-.197-.197-.468-.176-.521.04-.472 1.14-.471 1.15a.555.555 0 11-1.108.083c-.057-.766.181-2.241 1.496-2.34.586-.045 1.074.159 1.417.586 1.318 1.64-.02 6.393-.3 7.33a.556.556 0 01-.533.395z" fill="#77B255"/><path d="M20.166 12.111a.833.833 0 100-1.667.833.833 0 000 1.667z" fill="#5C913B"/><path d="M7.111 17.111a1.111 1.111 0 100-2.222 1.111 1.111 0 000 2.222z" fill="#9266CC"/><path d="M24.056 17.667a.833.833 0 100-1.667.833.833 0 000 1.667zM19.056 24.333a.833.833 0 100-1.666.833.833 0 000 1.666z" fill="#5C913B"/><path d="M21.555 9.333a1.111 1.111 0 100-2.222 1.111 1.111 0 000 2.222zM24.056 11.556a.833.833 0 100-1.667.833.833 0 000 1.667zM22.389 13.778a.833.833 0 100-1.667.833.833 0 000 1.667z" fill="#F04E4E"/><path d="M10.166 19.889a.833.833 0 100-1.667.833.833 0 000 1.667z" fill="#499DDF"/></g><defs><clipPath id="prefix__clip0_885_2668"><path fill="#fff" transform="translate(6 6)" d="M0 0h20v20H0z"/></clipPath></defs></svg>
