<svg width="56" height="56" viewBox="0 0 56 56" fill="none" xmlns="http://www.w3.org/2000/svg">
<circle cx="28" cy="28" r="27.5" fill="white" stroke="#E6E9EE"/>
<g clip-path="url(#clip0_96_423)">
<path d="M42.0014 28.3109C42.0014 27.1598 41.9061 26.3198 41.6998 25.4487H28.2871V30.6442H36.1601C36.0014 31.9354 35.1442 33.8798 33.2394 35.1864L33.2127 35.3604L37.4536 38.58L37.7474 38.6087C40.4458 36.1665 42.0014 32.5731 42.0014 28.3109Z" fill="#4285F4"/>
<path d="M28.2863 42C32.1434 42 35.3814 40.7555 37.7466 38.6089L33.2386 35.1865C32.0323 36.011 30.4132 36.5866 28.2863 36.5866C24.5086 36.5866 21.3023 34.1444 20.1593 30.7688L19.9918 30.7827L15.5821 34.1272L15.5244 34.2843C17.8736 38.8577 22.699 42 28.2863 42Z" fill="#34A853"/>
<path d="M20.1601 30.7688C19.8585 29.8977 19.684 28.9643 19.684 27.9999C19.684 27.0354 19.8585 26.1021 20.1443 25.231L20.1363 25.0455L15.6713 21.6473L15.5252 21.7154C14.557 23.6132 14.0015 25.7444 14.0015 27.9999C14.0015 30.2555 14.557 32.3865 15.5252 34.2843L20.1601 30.7688Z" fill="#FBBC05"/>
<path d="M28.2864 19.4133C30.9689 19.4133 32.7784 20.5488 33.8102 21.4978L37.8419 17.64C35.3658 15.3845 32.1435 14 28.2864 14C22.699 14 17.8736 17.1422 15.5244 21.7155L20.1435 25.2311C21.3023 21.8555 24.5086 19.4133 28.2864 19.4133Z" fill="#EB4335"/>
</g>
<defs>
<clipPath id="clip0_96_423">
<rect width="27.9999" height="28" fill="white" transform="translate(14.0015 14)"/>
</clipPath>
</defs>
</svg>
