<svg width="56" height="56" viewBox="0 0 56 56" fill="none" xmlns="http://www.w3.org/2000/svg">
<circle cx="28" cy="28" r="27.5" fill="white" stroke="#E6E9EE"/>
<g clip-path="url(#clip0_155_403)">
<path fill-rule="evenodd" clip-rule="evenodd" d="M28 12C19.1602 12 12 19.1602 12 28C12 35.0718 16.5869 41.0632 22.9417 43.1848C23.7373 43.3321 24.0319 42.841 24.0319 42.4088C24.0319 42.0258 24.0221 41.0239 24.0123 39.6882C19.5629 40.6507 18.62 37.547 18.62 37.547C17.8932 35.7004 16.8422 35.1995 16.8422 35.1995C15.3886 34.2075 16.9503 34.2271 16.9503 34.2271C18.5513 34.345 19.4058 35.8772 19.4058 35.8772C20.83 38.3229 23.1479 37.6157 24.0614 37.2032C24.2087 36.1719 24.6212 35.4647 25.0731 35.062C21.5273 34.6691 17.795 33.294 17.795 27.1651C17.795 25.4168 18.4138 23.9926 19.4451 22.8729C19.2781 22.4604 18.7281 20.8398 19.5924 18.6397C19.5924 18.6397 20.938 18.2075 23.9926 20.2799C25.2695 19.9263 26.6347 19.7495 28 19.7397C29.3554 19.7495 30.7305 19.9263 32.0074 20.2799C35.062 18.2075 36.4076 18.6397 36.4076 18.6397C37.2818 20.8398 36.7317 22.4702 36.5648 22.8729C37.5862 23.9926 38.205 25.4168 38.205 27.1651C38.205 33.3137 34.4629 34.6593 30.8975 35.062C31.4672 35.5531 31.9877 36.5353 31.9877 38.0282C31.9877 40.1694 31.9681 41.8883 31.9681 42.4187C31.9681 42.8508 32.2529 43.3419 33.0681 43.1848C39.423 41.0632 44 35.0718 44 28.0098C44 19.1602 36.8398 12 28 12Z" fill="#1A1414"/>
</g>
<defs>
<clipPath id="clip0_155_403">
<rect width="32" height="32" fill="white" transform="translate(12 12)"/>
</clipPath>
</defs>
</svg>
