<svg width="80" height="80" viewBox="0 0 80 80" fill="none" xmlns="http://www.w3.org/2000/svg">
<path d="M73.3666 21.3022L53.3666 1.30222C52.5644 0.5 51.4511 0 50.2222 0C47.7688 0 45.78 1.99111 45.7777 4.44444C45.7777 5.67111 46.2755 6.78444 47.08 7.58889L38.5044 16.1644L58.5044 36.1644L67.08 27.5889C67.8844 28.3911 68.9955 28.8889 70.2222 28.8889C72.6755 28.8889 74.6688 26.8978 74.6666 24.4444C74.6666 23.2178 74.1688 22.1067 73.3666 21.3022Z" fill="#DDE5EB"/>
<path d="M50.2222 0H16.8889C11.98 0 8 3.98 8 8.88889V71.1111C8 76.02 11.98 80 16.8889 80H65.7778C70.6867 80 74.6667 76.02 74.6667 71.1111V24.4444H54.6667C52.4444 24.4444 50.2222 22.2222 50.2222 20V0Z" fill="#DDE5EB"/>
<path d="M50.2222 0H45.7777V20C45.7777 24.9089 49.7577 28.8889 54.6666 28.8889H74.6666V24.4444H54.6666C52.4444 24.4444 50.2222 22.2222 50.2222 20V0Z" fill="#A9B9C4"/>
<path d="M32 48C32 56.8364 24.8364 64 16 64C7.16356 64 0 56.8364 0 48C0 39.1636 7.16356 32 16 32C24.8364 32 32 39.1636 32 48Z" fill="#CA3F53"/>
<path d="M28.4444 49.7777C28.4444 50.759 27.648 51.5554 26.6667 51.5554H5.33332C4.35199 51.5554 3.55554 50.759 3.55554 49.7777V46.2221C3.55554 45.2408 4.35199 44.4443 5.33332 44.4443H26.6667C27.648 44.4443 28.4444 45.2408 28.4444 46.2221V49.7777Z" fill="white"/>
</svg>
