<svg width="80" height="24" viewBox="0 0 80 24" fill="none" xmlns="http://www.w3.org/2000/svg">
<path d="M21.7161 19.2C25.5097 19.2 28.5548 16.2323 28.5548 12.3871C28.5548 8.54193 25.5097 5.57419 21.7161 5.57419C17.9226 5.57419 14.9032 8.54193 14.9032 12.3871C14.9032 16.2323 17.9226 19.2 21.7161 19.2ZM21.7161 15.9484C19.7548 15.9484 18.2323 14.4774 18.2323 12.3871C18.2323 10.2968 19.7548 8.82581 21.7161 8.82581C23.7032 8.82581 25.2258 10.2968 25.2258 12.3871C25.2258 14.4774 23.7032 15.9484 21.7161 15.9484Z" fill="#14D241"/>
<path d="M36.3935 19.2C40.1871 19.2 43.2323 16.2323 43.2323 12.3871C43.2323 8.54193 40.1871 5.57419 36.3935 5.57419C32.6 5.57419 29.5806 8.54193 29.5806 12.3871C29.5806 16.2323 32.6 19.2 36.3935 19.2ZM36.3935 15.9484C34.4323 15.9484 32.9097 14.4774 32.9097 12.3871C32.9097 10.2968 34.4323 8.82581 36.3935 8.82581C38.3806 8.82581 39.9032 10.2968 39.9032 12.3871C39.9032 14.4774 38.3806 15.9484 36.3935 15.9484Z" fill="#14D241"/>
<path d="M52.4387 5.57419C50.5548 5.57419 49.1871 6.27097 48.2581 7.45806V5.93548H44.929V24H48.2581V17.3161C49.1871 18.5032 50.5548 19.2 52.4387 19.2C55.8968 19.2 58.7355 16.2323 58.7355 12.3871C58.7355 8.54193 55.8968 5.57419 52.4387 5.57419ZM51.8194 16.0258C49.7806 16.0258 48.2581 14.5548 48.2581 12.3871C48.2581 10.2194 49.7806 8.74839 51.8194 8.74839C53.8839 8.74839 55.4064 10.2194 55.4064 12.3871C55.4064 14.5548 53.8839 16.0258 51.8194 16.0258Z" fill="#14D241"/>
<path d="M60.4381 18.8387H63.7671V0H60.4381V18.8387Z" fill="#14D241"/>
<path d="M68.9819 13.7548H78.7109C78.7883 13.3161 78.8399 12.8774 78.8399 12.3871C78.8399 8.59355 76.1302 5.57419 72.3109 5.57419C68.2593 5.57419 65.498 8.54193 65.498 12.3871C65.498 16.2323 68.2335 19.2 72.5689 19.2C75.0464 19.2 76.9818 18.1935 78.1948 16.4387L75.5109 14.8903C74.9431 15.6387 73.9109 16.1806 72.6206 16.1806C70.8657 16.1806 69.4464 15.4581 68.9819 13.7548ZM68.9302 11.1742C69.3173 9.52258 70.5302 8.56774 72.3109 8.56774C73.7044 8.56774 75.098 9.31613 75.5109 11.1742H68.9302Z" fill="#14D241"/>
<path d="M7.93701 19.3548C11.6202 19.3548 13.6816 17.5133 13.6816 15.0945C13.6816 9.73468 5.82058 11.3839 5.82058 9.40485C5.82058 8.66272 6.64516 8.08551 7.90952 8.08551C9.53121 8.08551 11.0429 8.77267 11.84 9.62474L13.2418 7.23344C11.9225 6.18897 10.1359 5.41936 7.88204 5.41936C4.3913 5.41936 2.43978 7.37087 2.43978 9.59725C2.43978 14.8196 10.3283 13.033 10.3283 15.2319C10.3283 16.0565 9.61367 16.6612 8.10193 16.6612C6.45276 16.6612 4.47375 15.7542 3.51174 14.8471L2 17.2934C3.40179 18.5852 5.62817 19.3548 7.93701 19.3548Z" fill="#14D241"/>
</svg>
