<svg width="64" height="64" viewBox="0 0 64 64" fill="none" xmlns="http://www.w3.org/2000/svg">
<g clip-path="url(#clip0_1164_3616)">
<path d="M20.6674 12.2791C20.4683 12.4782 20.3172 12.7182 20.1909 12.9813L20.1767 12.9671L0.237167 57.8844L0.256722 57.904C-0.113056 58.6204 0.505611 60.0782 1.77317 61.3475C3.04072 62.6151 4.4985 63.2338 5.21494 62.864L5.23272 62.8818L50.15 42.9404L50.1358 42.9244C50.3972 42.8 50.6372 42.6489 50.838 42.4462C53.6149 39.6693 49.1118 30.6649 40.7829 22.3342C32.4505 14.0035 23.446 9.50219 20.6674 12.2791Z" fill="#DD2E44"/>
<path d="M23.1101 20.3003L0.7385 56.7554L0.237167 57.8843L0.256722 57.9038C-0.113056 58.6203 0.505611 60.0781 1.77317 61.3474C2.18561 61.7598 2.61406 62.0727 3.03361 62.3376L30.2212 29.1892L23.1101 20.3003Z" fill="#EA596E"/>
<path d="M40.9091 22.1956C49.2113 30.5013 53.8211 39.3547 51.2007 41.9716C48.582 44.592 39.7286 39.984 31.4211 31.6818C23.1171 23.376 18.5091 14.5191 21.1278 11.9005C23.7482 9.28179 32.6015 13.8898 40.9091 22.1956Z" fill="#A0041E"/>
<path d="M33.0482 23.1609C32.6944 23.4471 32.2322 23.5964 31.7433 23.5431C30.2002 23.376 28.9024 22.8391 27.994 21.9911C27.0322 21.0933 26.5575 19.888 26.6873 18.6809C26.9149 16.5618 29.0411 14.6169 32.666 15.008C34.0757 15.1591 34.7051 14.7058 34.7264 14.4889C34.7513 14.2738 34.234 13.696 32.8242 13.5431C31.2811 13.376 29.9833 12.8391 29.0731 11.9911C28.1113 11.0933 27.6349 9.888 27.7664 8.68088C27.9975 6.56177 30.122 4.61688 33.7433 5.00977C34.7709 5.12 35.3131 4.90844 35.5424 4.77155C35.7255 4.65955 35.7984 4.55288 35.8055 4.49066C35.8269 4.27555 35.3166 3.69777 33.9033 3.54488C32.9273 3.43822 32.2197 2.56355 32.3282 1.58577C32.4331 0.609773 33.306 -0.0960047 34.2855 0.0106619C37.9069 0.399995 39.5709 2.752 39.3415 4.87288C39.1104 6.99555 36.986 8.93688 33.3611 8.54755C32.3335 8.43555 31.7966 8.64888 31.5655 8.78577C31.3824 8.896 31.3078 9.00444 31.3006 9.06488C31.2775 9.28177 31.7913 9.85777 33.2046 10.0107C36.826 10.4018 38.49 12.752 38.2606 14.8729C38.0313 16.992 35.9069 18.9369 32.2837 18.544C31.2562 18.4338 30.7158 18.6471 30.4846 18.7822C30.2998 18.896 30.2286 19.0027 30.2215 19.0631C30.1984 19.2782 30.7122 19.856 32.1237 20.0089C33.098 20.1156 33.8073 20.992 33.6989 21.968C33.6491 22.4551 33.402 22.8764 33.0482 23.1609Z" fill="#64BBFF"/>
<path d="M54.5074 39.6019C58.0149 38.6117 60.4345 40.1761 61.0105 42.2294C61.5865 44.281 60.3385 46.8783 56.8327 47.865C55.4638 48.249 55.0532 48.9032 55.1083 49.1112C55.1687 49.321 55.8638 49.6659 57.2292 49.2801C60.735 48.2934 63.1545 49.8579 63.7305 51.9094C64.3101 53.9628 63.0585 56.5566 59.551 57.545C58.1838 57.929 57.7714 58.585 57.8318 58.793C57.8905 59.001 58.5838 59.3459 59.9509 58.9619C60.8932 58.697 61.8781 59.2463 62.143 60.1903C62.4061 61.1361 61.8567 62.1174 60.9109 62.3841C57.4069 63.3708 54.9856 61.8099 54.4061 59.7548C53.8301 57.7032 55.0798 55.1094 58.5892 54.121C59.9581 53.7352 60.3687 53.0828 60.3083 52.873C60.2514 52.665 59.5581 52.3183 58.1927 52.7023C54.6834 53.6908 52.2656 52.1299 51.6878 50.073C51.1101 48.0214 52.3598 45.4277 55.8674 44.4374C57.2327 44.0552 57.6434 43.3974 57.5865 43.1912C57.5261 42.9814 56.8345 42.6366 55.4674 43.0206C54.5216 43.2872 53.5421 42.7361 53.2754 41.7921C53.0105 40.8499 53.5616 39.8686 54.5074 39.6019Z" fill="#6ED898"/>
<path d="M40.8899 34.8073C40.3672 34.8073 39.8516 34.578 39.4996 34.1407C38.8863 33.3727 39.0125 32.2545 39.777 31.6411C40.1645 31.33 49.409 24.0696 62.4739 25.938C63.4463 26.0767 64.1219 26.9762 63.9832 27.9487C63.8445 28.9194 62.9521 29.602 61.9707 29.4562C50.4276 27.8171 42.0827 34.3522 42.001 34.418C41.6703 34.6811 41.2792 34.8073 40.8899 34.8073Z" fill="#64BBFF"/>
<path d="M10.2285 27.4116C10.0596 27.4116 9.88719 27.3868 9.71652 27.337C8.77608 27.0543 8.24274 26.0641 8.52541 25.1236C10.5396 18.4161 12.3654 7.71209 10.1219 4.92098C9.87119 4.60453 9.49252 4.29342 8.62497 4.3592C6.95741 4.4872 7.11563 8.00542 7.11741 8.04098C7.19208 9.02053 6.45608 9.87387 5.4783 9.94676C4.48452 10.0072 3.64541 9.28542 3.57252 8.30587C3.38941 5.85431 4.15208 1.13253 8.3583 0.814313C10.2356 0.67209 11.7947 1.32453 12.8952 2.69342C17.1103 7.93965 12.8312 23.1485 11.9316 26.1459C11.7005 26.9156 10.993 27.4116 10.2285 27.4116Z" fill="#6ED898"/>
<path d="M45.3324 18.5225C46.8052 18.5225 47.9991 17.3286 47.9991 15.8559C47.9991 14.3831 46.8052 13.1892 45.3324 13.1892C43.8597 13.1892 42.6658 14.3831 42.6658 15.8559C42.6658 17.3286 43.8597 18.5225 45.3324 18.5225Z" fill="#339F99"/>
<path d="M3.55458 34.5225C5.51826 34.5225 7.11013 32.9306 7.11013 30.9669C7.11013 29.0033 5.51826 27.4114 3.55458 27.4114C1.5909 27.4114 -0.000976562 29.0033 -0.000976562 30.9669C-0.000976562 32.9306 1.5909 34.5225 3.55458 34.5225Z" fill="#B67DFE"/>
<path d="M57.777 36.3004C59.2498 36.3004 60.4437 35.1065 60.4437 33.6337C60.4437 32.1609 59.2498 30.967 57.777 30.967C56.3043 30.967 55.1104 32.1609 55.1104 33.6337C55.1104 35.1065 56.3043 36.3004 57.777 36.3004Z" fill="#339F99"/>
<path d="M41.777 57.6336C43.2498 57.6336 44.4437 56.4397 44.4437 54.967C44.4437 53.4942 43.2498 52.3003 41.777 52.3003C40.3043 52.3003 39.1104 53.4942 39.1104 54.967C39.1104 56.4397 40.3043 57.6336 41.777 57.6336Z" fill="#339F99"/>
<path d="M49.777 9.63357C51.7407 9.63357 53.3326 8.0417 53.3326 6.07802C53.3326 4.11434 51.7407 2.52246 49.777 2.52246C47.8133 2.52246 46.2214 4.11434 46.2214 6.07802C46.2214 8.0417 47.8133 9.63357 49.777 9.63357Z" fill="#FFDB83"/>
<path d="M57.777 16.7447C59.2498 16.7447 60.4437 15.5508 60.4437 14.078C60.4437 12.6053 59.2498 11.4114 57.777 11.4114C56.3043 11.4114 55.1104 12.6053 55.1104 14.078C55.1104 15.5508 56.3043 16.7447 57.777 16.7447Z" fill="#FFCC4D"/>
<path d="M52.4435 23.8558C53.9163 23.8558 55.1102 22.6619 55.1102 21.1891C55.1102 19.7164 53.9163 18.5225 52.4435 18.5225C50.9708 18.5225 49.7769 19.7164 49.7769 21.1891C49.7769 22.6619 50.9708 23.8558 52.4435 23.8558Z" fill="#FFCC4D"/>
<path d="M13.3324 43.4115C14.8052 43.4115 15.9991 42.2175 15.9991 40.7448C15.9991 39.272 14.8052 38.0781 13.3324 38.0781C11.8597 38.0781 10.6658 39.272 10.6658 40.7448C10.6658 42.2175 11.8597 43.4115 13.3324 43.4115Z" fill="#FFCC4D"/>
</g>
<defs>
<clipPath id="clip0_1164_3616">
<rect width="64" height="64" fill="white"/>
</clipPath>
</defs>
</svg>
