<svg viewBox="0 0 120 24" fill="none" xmlns="http://www.w3.org/2000/svg">
<path d="M23.4505 15.2967C23.4505 10.3846 27.3077 6.59338 32.1538 6.59338C37 6.59338 40.8901 10.3846 40.8901 15.2967C40.8901 20.2088 37 24 32.1538 24C27.3077 24 23.4505 20.2088 23.4505 15.2967ZM36.6374 15.2967C36.6374 12.6264 34.6923 10.7472 32.1538 10.7472C29.6483 10.7472 27.7033 12.6264 27.7033 15.2967C27.7033 17.967 29.6483 19.8461 32.1538 19.8461C34.6923 19.8461 36.6374 17.967 36.6374 15.2967Z" fill="#499DDF"/>
<path d="M86.2198 20.1428C87.8681 20.1428 89.1868 19.4505 89.9121 18.4945L93.3407 20.4725C91.7912 22.7143 89.3187 24 86.1539 24C80.6154 24 77.1209 20.2088 77.1209 15.2967C77.1209 10.3846 80.6484 6.59338 85.8242 6.59338C90.7033 6.59338 94.1648 10.4505 94.1648 15.2967C94.1648 15.9231 94.0989 16.4835 94 17.0439H81.5714C82.1648 19.2198 83.978 20.1428 86.2198 20.1428ZM89.9121 13.7472C89.3846 11.3736 87.6044 10.4176 85.8242 10.4176C83.5495 10.4176 82 11.6373 81.5055 13.7472H89.9121Z" fill="#499DDF"/>
<path d="M105.077 6.72528V11.4725C102.868 11.2088 100.066 12.1978 100.066 15.6593V23.5385H95.8132V7.05495H100.066V9.89012C100.923 7.64836 103 6.72528 105.077 6.72528Z" fill="#499DDF"/>
<path d="M119.212 18.7253C119.212 22.2857 116.114 24 112.586 24C109.289 24 106.85 22.6154 105.663 20.0769L109.355 18C109.817 19.3516 110.938 20.1428 112.586 20.1428C113.938 20.1428 114.861 19.6813 114.861 18.7253C114.861 16.3187 106.355 17.6373 106.355 11.8351C106.355 8.47251 109.223 6.59338 112.619 6.59338C115.289 6.59338 117.597 7.81316 118.883 10.0879L115.256 12.0659C114.762 11.011 113.839 10.3846 112.619 10.3846C111.564 10.3846 110.707 10.8461 110.707 11.7362C110.711 14.1758 119.212 12.6593 119.212 18.7253Z" fill="#499DDF"/>
<path d="M57.9671 13.4176V23.5385H53.7143V13.9451C53.7143 11.7033 52.3627 10.5495 50.4506 10.5495C48.3736 10.5495 46.8242 11.7692 46.8242 14.6374V23.5385H42.5714V7.05496H46.8242V8.23445C46.989 7.98903 48.1795 6.86815 50.7546 6.59342C54.7729 6.16119 57.9671 8.83152 57.9671 13.4176Z" fill="#499DDF"/>
<path d="M75.6703 13.4176V23.5385H71.4176V13.9451C71.4176 11.7033 70.0659 10.5495 68.1539 10.5495C66.0769 10.5495 64.5275 11.7692 64.5275 14.6374V23.5385H60.2747V7.05496H64.5275V8.23445C64.6923 7.98903 65.8828 6.86815 68.4579 6.59342C72.4762 6.16119 75.6703 8.83152 75.6703 13.4176Z" fill="#499DDF"/>
<path d="M17.3773 18.3077C16.1905 19.1026 14.707 19.5494 13 19.5494C8.48352 19.5494 5.51648 16.4176 5.51648 12C5.51648 7.54945 8.48352 4.41758 13 4.41758C15.7839 4.41758 17.7253 5.75824 19 7.71429L22.9231 5.43956C20.8498 2.1978 17.4139 0 13 0C6.01099 0 1 5.24176 1 12C1 18.7253 6.01099 24 13 24C16.6813 24 19.8169 22.5348 21.956 20.1648C21.2711 18.6996 20.8864 17.0513 20.8864 15.2967C20.8864 15.2967 19.304 17.1429 17.3773 18.3077Z" fill="#499DDF"/>
</svg>
