<svg viewBox="0 0 96 24" fill="none" xmlns="http://www.w3.org/2000/svg">
<g clip-path="url(#clip0_58_25)">
<path d="M23.9287 23.5355C23.3252 23.5355 22.7115 23.4372 22.1013 23.2236C19.111 22.176 17.7515 18.5382 18.9347 14.758C19.9518 11.5101 20.8638 9.57423 23.0201 8.01807C24.3999 7.02471 26.6545 6.47548 28.1191 7.4146C28.7497 7.81805 28.9328 8.65545 28.5293 9.28944C28.1259 9.92004 27.2885 10.1031 26.6545 9.69967C26.4307 9.56744 25.4204 9.62847 24.6033 10.2184C23.193 11.2355 22.5013 12.4356 21.5182 15.5683C20.7926 17.8805 21.4402 20.1181 22.9929 20.6639C24.288 21.1182 26.2917 20.5181 27.2647 18.7586C28.4513 16.6057 28.9429 15.0462 28.7022 11.4897C28.6514 10.7439 29.2175 10.0963 29.9634 10.0455C30.7127 9.99462 31.3568 10.5608 31.4077 11.3067C31.6891 15.4903 31.0348 17.5415 29.6379 20.0672C28.5903 21.9794 26.3426 23.5355 23.9287 23.5355Z" fill="#499DDF"/>
<path d="M33.469 15.9785C33.2995 15.9785 33.13 15.9718 32.9571 15.9514C30.8957 15.7446 29.3057 14.3376 28.8039 12.2763C28.6276 11.5474 29.0718 10.8151 29.8007 10.6388C30.5296 10.4625 31.2619 10.91 31.4382 11.6356C31.6653 12.5713 32.3163 13.1612 33.2249 13.2527C34.2827 13.3578 35.8795 12.7103 36.9 10.5303C37.2153 9.85226 38.0256 9.5573 38.7036 9.87599C39.3817 10.1947 39.6766 11.0016 39.358 11.6796C38.1137 14.341 35.8422 15.9785 33.469 15.9785Z" fill="#499DDF"/>
<path d="M32.679 23.3253C32.2858 23.3253 31.8959 23.1558 31.628 22.8269C31.1534 22.2472 31.2382 21.3928 31.8179 20.9182C33.9368 19.1857 36.6559 13.8019 37.3645 8.12316C37.456 7.38069 38.1307 6.84841 38.8765 6.94334C39.619 7.03487 40.1479 7.71294 40.0564 8.45541C39.3274 14.3105 36.5237 20.5724 33.5368 23.0168C33.2859 23.2236 32.9808 23.3253 32.679 23.3253Z" fill="#499DDF"/>
<path d="M73.478 23.5219C73.0847 23.5219 72.6949 23.3524 72.427 23.0236C71.9524 22.4438 72.0371 21.5895 72.6169 21.1148C74.6036 19.4909 76.5564 14.5953 77.3599 9.21823C77.4718 8.47575 78.16 7.96721 78.9025 8.07909C79.6416 8.19097 80.1535 8.8792 80.0417 9.62168C79.1161 15.8022 76.8751 21.1386 74.3324 23.2168C74.0849 23.4202 73.7798 23.5219 73.478 23.5219Z" fill="#499DDF"/>
<path d="M44.3993 23.4474C43.1856 23.4474 42.1007 22.9388 41.3616 22.0099C40.0292 20.3317 40.7344 18.3348 41.5481 16.0226C41.9142 14.9818 42.3313 13.8019 42.6296 12.4899C42.8059 11.7135 42.7211 11.2355 42.3787 11.0693C41.6803 10.7337 40.1615 11.1473 39.3885 12.1102C38.9206 12.6933 38.0662 12.7882 37.4831 12.3204C36.9 11.8525 36.8051 10.9982 37.2729 10.415C38.8121 8.49949 41.6295 7.69938 43.5585 8.62832C45.1011 9.37419 45.7419 11.0422 45.274 13.0934C44.9418 14.5546 44.4977 15.8158 44.1078 16.9244C43.5585 18.4772 43.0873 19.8197 43.4874 20.3249C43.8094 20.7317 44.2875 20.7656 44.6299 20.7216C45.5215 20.6063 46.7895 19.7689 47.671 17.7652C48.6576 15.5242 49.8849 12.395 50.6273 8.06214C50.7528 7.32306 51.4546 6.82807 52.1937 6.95351C52.9327 7.07895 53.4277 7.78075 53.3023 8.51983C52.509 13.1442 51.2037 16.4735 50.1527 18.8569C49.0169 21.4369 47.0811 23.1389 44.9757 23.4101C44.7825 23.4338 44.5892 23.4474 44.3993 23.4474Z" fill="#499DDF"/>
<path d="M57.7097 23.5186C56.4146 23.5186 55.1873 22.9694 54.4245 22.0065C53.0921 20.3283 53.7973 18.3314 54.611 16.0192C54.9771 14.9784 55.3941 13.7986 55.6925 12.4865C55.8688 11.7101 55.784 11.2321 55.4416 11.066C54.7432 10.7269 53.2243 11.144 52.4513 12.1068C51.9835 12.6899 51.1291 12.7849 50.546 12.317C49.9628 11.8491 49.8679 10.9948 50.3358 10.4116C51.8716 8.49612 54.6923 7.69262 56.6214 8.62495C58.164 9.37082 58.8048 11.0389 58.3403 13.09C58.0081 14.5512 57.5639 15.8124 57.174 16.921C56.6248 18.4738 56.1536 19.8164 56.5536 20.3215C56.7943 20.6233 57.3402 20.9216 58.0928 20.769C58.8251 20.6199 60.6593 19.8062 61.8493 15.4836C62.0459 14.7614 62.7952 14.3376 63.5173 14.5343C64.2394 14.7343 64.6632 15.4802 64.4666 16.2023C62.9376 21.7658 60.1575 23.1185 58.6386 23.427C58.3233 23.4881 58.0148 23.5186 57.7097 23.5186Z" fill="#499DDF"/>
<path d="M67.7993 23.4982C66.0465 23.4982 64.4835 22.9694 63.3546 21.959C62.0425 20.786 61.4153 19.0569 61.5916 17.0872C61.8696 13.9783 63.5987 10.0489 67.606 8.34696C70.142 7.27223 72.0473 8.10625 72.9898 9.24539C74.0849 10.5744 74.1391 12.4831 73.122 13.9918C71.2947 16.7075 69.0876 16.7854 66.9788 16.4667C66.2397 16.3549 65.7278 15.6632 65.8397 14.9242C65.9515 14.1851 66.6432 13.6731 67.3823 13.785C69.0503 14.0359 69.9013 13.9105 70.8675 12.4764C71.2133 11.961 71.2235 11.3711 70.8946 10.9711C70.4844 10.4727 69.647 10.4252 68.6638 10.8422C65.7583 12.0763 64.5005 15.0021 64.2903 17.3279C64.1886 18.4535 64.4801 19.3316 65.1548 19.935C66.0397 20.725 67.5043 20.9792 69.1757 20.6368C69.908 20.4843 70.6268 20.9589 70.7759 21.6912C70.9251 22.4235 70.4539 23.1423 69.7216 23.2914C69.0672 23.4338 68.4231 23.4982 67.7993 23.4982Z" fill="#499DDF"/>
<path d="M9.05198 23.7864C8.64853 23.7864 8.24509 23.7627 7.84503 23.7118C5.25144 23.3829 3.14945 22.0302 2.07472 19.996C0.216833 16.4871 0.806747 10.9947 3.53934 6.32968C6.26854 1.66462 9.96397 -0.542475 13.9408 0.111855C18.0295 0.786526 19.1788 5.06171 19.2263 5.24478C19.4128 5.97031 18.9788 6.7094 18.2533 6.89586C17.5278 7.08233 16.7921 6.64837 16.6022 5.92624C16.5649 5.79401 15.8224 3.16991 13.5001 2.78681C9.92329 2.1969 7.38056 5.1329 5.87865 7.69598C3.63766 11.5202 3.0613 16.0565 4.47167 18.7247C5.126 19.9655 6.48213 20.7995 8.18745 21.0165C10.6997 21.3352 13.3678 20.2469 15.3241 18.1008C15.8292 17.5482 16.687 17.5075 17.2396 18.0127C17.7922 18.5178 17.8329 19.3756 17.3277 19.9282C15.08 22.3964 12.0592 23.7864 9.05198 23.7864Z" fill="#499DDF"/>
<path d="M76.8989 17.9551C76.7768 17.9551 76.6514 17.9381 76.5259 17.9008C75.8106 17.694 75.3936 16.9515 75.5936 16.2328C75.6716 15.9582 77.5871 9.46573 85.4967 8.96397C86.2459 8.9199 86.8901 9.48269 86.9376 10.2319C86.985 10.9812 86.4188 11.6254 85.6696 11.6728C79.723 12.0492 78.2651 16.7752 78.2041 16.9753C78.0278 17.5686 77.4854 17.9551 76.8989 17.9551Z" fill="#499DDF"/>
<path d="M87.819 24C86.6968 24 85.5306 23.7796 84.4016 23.3321C83.4455 22.9524 81.4622 21.8132 80.7875 20.2164C80.496 19.5248 80.8214 18.7314 81.5097 18.4399C82.2013 18.1483 82.9946 18.4738 83.2862 19.162C83.5167 19.7079 84.6118 20.4978 85.4017 20.8097C87.6732 21.7149 89.7074 21.2165 90.7177 20.3215C91.0602 20.0164 91.606 19.3756 91.3788 18.5212C91.1958 17.8296 90.7754 17.4872 90.0464 16.938C89.148 16.2667 87.9207 15.3445 87.7444 13.3375C87.6156 11.8796 88.2157 10.4862 89.4294 9.41487C90.399 8.56052 91.7111 7.97738 92.9452 7.85533C93.6876 7.78074 94.3555 8.32658 94.4301 9.06906C94.5047 9.81493 93.9589 10.4794 93.2164 10.554C92.006 10.6761 90.3278 11.7271 90.4465 13.0967C90.5143 13.863 90.8737 14.1613 91.6772 14.7648C92.4773 15.3649 93.5724 16.1853 94.0063 17.8228C94.4369 19.4502 93.8809 21.1386 92.5214 22.3455C91.2941 23.4338 89.6159 24 87.819 24Z" fill="#499DDF"/>
</g>
<defs>
<clipPath id="clip0_58_25">
<rect width="96" height="24" fill="white"/>
</clipPath>
</defs>
</svg>
