<svg width="80" height="80" viewBox="0 0 80 80" fill="none" xmlns="http://www.w3.org/2000/svg">
<path d="M40 4C20.12 4 4 20.12 4 40C4 52.102 9.992 62.784 19.148 69.31C19.356 56.434 14.674 42 6.808 42C5.88 42 5.128 42.132 4.502 42.366C5.108 40.852 6.422 40 8.88 40C17.42 40 22.212 57.012 21.064 70.576C26.572 73.994 33.044 76 40 76C46.958 76 53.432 73.992 58.94 70.574C57.786 56.96 62.576 40 71.122 40C73.588 40 74.906 40.852 75.506 42.366C74.878 42.132 74.124 42 73.192 42C65.316 42 60.636 56.398 60.852 69.31C70.01 62.784 76 52.102 76 40C76 20.12 59.882 4 40 4Z" fill="#FFD160"/>
<path d="M40 4C20.12 4 4 20.12 4 40C4 42.384 4.246 44.712 4.688 46.968C5.156 45.242 5.888 43.586 6.804 42C5.878 42 5.128 42.132 4.504 42.366C5.032 41.048 6.148 40.27 8.04 40.082C14.024 31.724 26.074 26 40 26C53.928 26 65.976 31.722 71.96 40.08C73.86 40.268 74.98 41.044 75.504 42.366C74.88 42.132 74.126 42 73.198 42C74.114 43.586 74.844 45.242 75.314 46.968C75.756 44.712 76 42.384 76 40C76 20.12 59.882 4 40 4Z" fill="#B2D6EF"/>
<path d="M18.694 27.8201C16.802 34.1721 18.908 40.4061 23.4 41.7441C27.892 43.0841 33.068 39.0201 34.958 32.6681C36.85 26.3181 34.746 20.0821 30.256 18.7441C25.764 17.4061 20.588 21.4701 18.694 27.8201ZM61.304 27.8201C63.196 34.1721 61.09 40.4061 56.6 41.7441C52.108 43.0841 46.932 39.0201 45.042 32.6681C43.15 26.3181 45.256 20.0821 49.744 18.7441C54.234 17.4061 59.41 21.4701 61.304 27.8201Z" fill="#F5F8FA"/>
<path d="M40 40C34.486 40 30 44.486 30 50V62C30 67.514 34.486 72 40 72C45.514 72 50 67.514 50 62V50C50 44.486 45.514 40 40 40Z" fill="#806E49"/>
<path d="M6.80802 42.0001C5.88002 42.0001 5.12802 42.1321 4.50202 42.3661C4.64602 42.0081 4.83602 41.6941 5.06402 41.4141C1.34002 45.9961 9.69802 61.0801 5.63602 76.0001H18.556C20.936 62.0801 16.086 42.0001 6.80802 42.0001ZM75.506 42.3661C74.878 42.1321 74.124 42.0001 73.192 42.0001C63.91 42.0001 59.062 62.0041 61.446 76.0001H74.366C70.554 61.9101 77.678 47.8221 75.506 42.3661Z" fill="#FFB85A"/>
</svg>
