<svg version="1.0" xmlns="http://www.w3.org/2000/svg" width="512" height="512" viewBox="0 0 384 384"><path d="M174 49.1c-61.8 7-100.4 49.1-91.6 99.8 5.8 33.2 28.3 53.2 73.1 65.1 6.1 1.6 19.8 4.8 30.5 7 27 5.6 34.2 7.6 43.7 12.1 10.2 4.9 13.4 8.6 14.1 16.5.8 9.6-4.2 18.6-13.3 23.9-11.1 6.6-34.8 8.5-54.5 4.5-24.1-4.9-51-17.1-67.6-30.6l-5.2-4.3-15.6 25.2-15.5 25.1 3.2 2.8c11.6 10 32.7 21.9 49.1 27.7 61.6 21.7 131.8 13.3 165.4-19.8 15.7-15.4 23.2-33.8 23.2-56.7 0-41.6-23.1-67.8-72.2-82-6.5-1.8-22.7-5.6-36-8.5-27.4-5.8-37-8.5-44.6-12.9-6.3-3.7-9.2-7.9-9.2-13.8 0-12.2 10.9-21.9 28.7-25.7 27.1-5.8 69.9 6.3 90.9 25.7 2.6 2.4 4.8 3.7 5.3 3.2 2.4-2.6 28.1-47.7 27.6-48.4-1.3-2-19.6-13.6-29.6-18.5-29.2-14.7-66.4-21.2-99.9-17.4z"/></svg>
